<mxfile host="app.diagrams.net" agent="Mozilla/5.0 (Windows NT 10.0; Win64; x64) AppleWebKit/537.36 (KHTML, like Gecko) Chrome/136.0.0.0 Safari/537.36 Edg/136.0.0.0" version="27.0.1">
  <diagram name="第 1 页" id="D3sE0bDexnZao1sLiryY">
    <mxGraphModel dx="776" dy="429" grid="1" gridSize="10" guides="1" tooltips="1" connect="1" arrows="1" fold="1" page="1" pageScale="1" pageWidth="827" pageHeight="1169" math="0" shadow="0">
      <root>
        <mxCell id="0" />
        <mxCell id="1" parent="0" />
        <mxCell id="AaJZ0Ju9Pkf8d7LvsJxA-8" style="rounded=0;orthogonalLoop=1;jettySize=auto;html=1;exitX=0.5;exitY=0;exitDx=0;exitDy=0;entryX=0.5;entryY=1;entryDx=0;entryDy=0;endArrow=none;startFill=0;" edge="1" parent="1" source="AaJZ0Ju9Pkf8d7LvsJxA-2" target="AaJZ0Ju9Pkf8d7LvsJxA-3">
          <mxGeometry relative="1" as="geometry" />
        </mxCell>
        <mxCell id="AaJZ0Ju9Pkf8d7LvsJxA-9" style="rounded=0;orthogonalLoop=1;jettySize=auto;html=1;exitX=0.5;exitY=0;exitDx=0;exitDy=0;entryX=0.5;entryY=1;entryDx=0;entryDy=0;endArrow=none;startFill=0;" edge="1" parent="1" source="AaJZ0Ju9Pkf8d7LvsJxA-2" target="AaJZ0Ju9Pkf8d7LvsJxA-4">
          <mxGeometry relative="1" as="geometry" />
        </mxCell>
        <mxCell id="AaJZ0Ju9Pkf8d7LvsJxA-10" style="rounded=0;orthogonalLoop=1;jettySize=auto;html=1;exitX=0.5;exitY=0;exitDx=0;exitDy=0;entryX=0.5;entryY=1;entryDx=0;entryDy=0;endArrow=none;startFill=0;" edge="1" parent="1" source="AaJZ0Ju9Pkf8d7LvsJxA-2" target="AaJZ0Ju9Pkf8d7LvsJxA-5">
          <mxGeometry relative="1" as="geometry" />
        </mxCell>
        <mxCell id="AaJZ0Ju9Pkf8d7LvsJxA-11" style="rounded=0;orthogonalLoop=1;jettySize=auto;html=1;exitX=0.5;exitY=0;exitDx=0;exitDy=0;entryX=0.5;entryY=1;entryDx=0;entryDy=0;endArrow=none;startFill=0;" edge="1" parent="1" source="AaJZ0Ju9Pkf8d7LvsJxA-2" target="AaJZ0Ju9Pkf8d7LvsJxA-6">
          <mxGeometry relative="1" as="geometry" />
        </mxCell>
        <mxCell id="AaJZ0Ju9Pkf8d7LvsJxA-2" value="管理员信息" style="rounded=0;whiteSpace=wrap;html=1;fillColor=#dae8fc;strokeColor=#6c8ebf;fontSize=16;fontFamily=Times New Roman;" vertex="1" parent="1">
          <mxGeometry x="320" y="450" width="120" height="60" as="geometry" />
        </mxCell>
        <mxCell id="AaJZ0Ju9Pkf8d7LvsJxA-3" value="账号" style="ellipse;whiteSpace=wrap;html=1;fillColor=#fff2cc;strokeColor=#d6b656;fontSize=16;fontFamily=Times New Roman;" vertex="1" parent="1">
          <mxGeometry x="150" y="340" width="100" height="60" as="geometry" />
        </mxCell>
        <mxCell id="AaJZ0Ju9Pkf8d7LvsJxA-4" value="密码" style="ellipse;whiteSpace=wrap;html=1;fillColor=#fff2cc;strokeColor=#d6b656;fontSize=16;fontFamily=Times New Roman;" vertex="1" parent="1">
          <mxGeometry x="270" y="340" width="100" height="60" as="geometry" />
        </mxCell>
        <mxCell id="AaJZ0Ju9Pkf8d7LvsJxA-5" value="新增时间" style="ellipse;whiteSpace=wrap;html=1;fillColor=#fff2cc;strokeColor=#d6b656;fontSize=16;fontFamily=Times New Roman;" vertex="1" parent="1">
          <mxGeometry x="390" y="340" width="100" height="60" as="geometry" />
        </mxCell>
        <mxCell id="AaJZ0Ju9Pkf8d7LvsJxA-6" value="角色" style="ellipse;whiteSpace=wrap;html=1;fillColor=#fff2cc;strokeColor=#d6b656;fontSize=16;fontFamily=Times New Roman;" vertex="1" parent="1">
          <mxGeometry x="510" y="340" width="100" height="60" as="geometry" />
        </mxCell>
      </root>
    </mxGraphModel>
  </diagram>
</mxfile>
